<svg width="16" height="16" viewBox="0 0 16 16" fill="none" xmlns="http://www.w3.org/2000/svg">
<path d="M3.27066 0.984375L2.79129 1.61812C1.60823 3.182 2.07079 5.13468 2.32113 5.89475C2.18126 6.12956 2.00007 6.49015 1.88501 6.93368C1.66601 7.77806 1.77094 8.58562 2.18632 9.30246C2.21738 9.29096 2.24838 9.27928 2.27907 9.26743C3.90351 8.58796 6.20579 6.74265 7.13138 5.97118L3.27066 0.984375Z" fill="#2979FF"/>
<path d="M10.9248 9.59078C12.5996 9.46953 13.9255 8.06906 13.9255 6.36381C13.9255 5.92559 13.8376 5.50765 13.6791 5.12615L14.8203 4.63125L13.4609 4.09419L13.4338 2.63281L12.4519 3.65175C11.9443 3.32062 11.3389 3.12734 10.689 3.12734C8.90444 3.12734 7.45253 4.57922 7.45253 6.36381C7.45253 6.65022 7.49034 6.92787 7.56053 7.19256C6.43837 8.10725 4.32841 9.73156 2.73353 10.3941C1.47194 10.8847 0 11.0949 0 11.0949L2.34806 11.936L0.98125 14.2491C0.98125 14.2491 3.38619 13.0615 6.20109 12.8726C6.38722 13.3777 6.70463 13.8376 7.13459 14.2114C7.74863 14.7453 8.45213 15.0174 9.20272 15.0173C9.47962 15.0173 9.76309 14.9802 10.0507 14.9056C10.4942 14.7906 10.8548 14.6094 11.0897 14.4695C11.8497 14.7199 13.8024 15.1824 15.3663 13.9994L16 13.52L10.9248 9.59078ZM11.3914 5.45359C11.7273 5.45359 11.9995 5.72584 11.9995 6.06169C11.9995 6.3975 11.7273 6.66978 11.3914 6.66978C11.0556 6.66978 10.7833 6.39753 10.7833 6.06169C10.7834 5.72584 11.0556 5.45359 11.3914 5.45359Z" fill="#2979FF"/>
</svg>
