<?xml version="1.0" encoding="UTF-8"?><svg xmlns="http://www.w3.org/2000/svg" viewBox="0 0 608.09 519.04"><defs><style>.d{fill:#fff;}.e{fill:#004289;}.f{fill:#8f9b8c;}.g{fill:#450c00;}.h{isolation:isolate;}.i{fill:#005392;}.j{fill:#fff269;mix-blend-mode:color-dodge;}.k{mix-blend-mode:screen;}.k,.l{fill:#007bc1;}.m,.n,.o,.p,.q,.r{mix-blend-mode:multiply;}.m,.q{fill:#7761a9;}.s{fill:#deeed4;}.n{fill:#fac911;}.o{fill:#becdb8;}.o,.q{opacity:.5;}.p{fill:#f7b71a;}.t{fill:#662d26;}.u,.r{fill:#ffe100;}.v{fill:#b8babc;}</style></defs><g class="h"><g id="a"/><g id="b"><g id="c"><g><path class="l" d="M340.99,38.55s43.1,9.11,59.58,64.13c0,0,24.18,15.78,6.66,42.76-17.53,26.98-70.09,48.71-71.85,49.05-1.75,.35,44.51,12.97,107.25,16.83,62.73,3.85,121.95,14.01,161.9,2.09,0,0,5.96-2.09,2.45,4.91-3.5,7.01-26.99,17.53-39.25,19.97,0,0,29.79-4.2,24.19,4.91-5.61,9.12-29.79,18.58-46.27,20.69,0,0,26.29-.7,19.63,6.65-6.66,7.37-41.71,19.98-62.38,21.38,0,0,25.94,0,16.82,7.71-9.11,7.71-53.62,17.52-63.78,15.07,0,0,23.13,8.06,11.57,12.96-11.57,4.9-42.41,7.01-57.83,.7,0,0,18.93,10.51,6.31,11.92-12.62,1.4-46.26-9.46-46.26-9.46,0,0,28.03,22.43,17.87,23.49-10.16,1.04-29.09-9.47-36.1-17.53,0,0,8.06,14.02,1.4,14.02s-19.62-14.02-19.62-14.02c0,0,4.56,18.93-1.75,18.22-6.31-.69-29.44-31.54-29.79-32.59-.35-1.05-13.32,26.29-56.77,52.21,0,0,4.2,53.27-16.12,98.14,0,0-12.62,31.89-25.24,40.29-12.17,8.11-7.71-24.84-6.12-38.51,.06-.51,.12-.99,.17-1.45,1.4-12.61-14.02,37.85-31.54,45.22-17.53,7.37,7.37-44.86,7.37-44.86,0,0-26.29,42.76-42.41,44.51-16.12,1.75,12.97-45.56,12.97-45.56,0,0-25.23,36.1-44.16,37.85-18.93,1.75,17.17-52.22,17.17-52.22,0,0-25.58,26.99-38.9,29.44-13.32,2.45,16.82-37.15,16.82-37.15,0,0-26.63,18.22-17.17-4.56,9.47-22.78,69.39-72.19,87.26-83.06,0,0-7.36-20.68-8.76-33.99,0,0-20.33-15.06-31.54-36.44,0,0,.7,16.81-3.51,13.65-4.21-3.15-9.11-26.62-9.11-26.62,0,0-7.36,12.97-12.62,10.52-5.25-2.46-.69-25.59-.69-25.59,0,0-18.23,9.46-18.23,4.91s8.4-9.82,8.4-9.82c0,0-26.28,3.51-25.23-3.51,1.05-7.01,15.77-10.51,15.77-10.51,0,0-21.38-2.8-24.53-8.06-3.15-5.26,14.02-7.71,14.02-7.71,0,0-27.69-11.56-33.99-21.02-6.31-9.46,15.07-7.01,15.07-7.01,0,0-22.08-14.72-25.94-25.23-3.85-10.52,22.78-1.05,22.78-1.05,0,0-23.48-11.21-32.24-24.89-8.76-13.67,25.23-5.96,25.23-5.96,0,0-25.58-19.27-26.64-30.13-1.04-10.87,19.98,6.3,19.98,6.3,0,0-51.16-54.33-26.64-54.33,6.2,0,61.68,51.17,132.47,72.9,0,0,76.41,19.28,91.82,29.1,0,0-24.53-41.01,1.75-82.02,26.28-41,70.09-59.57,65.88-81.3,0,0,9.81,1.41,5.96,21.03,0,0,11.22-11.56,11.22-24.53,0,0,8.4,13.32,2.45,28.39,0,0,14.72-11.56,11.57-29.79,0,0,20.67,9.46,11.21,38.55Z"/><path class="l" d="M340.99,38.55s43.1,9.11,59.58,64.13c0,0,24.18,15.78,6.66,42.76-17.53,26.98-70.09,48.71-71.85,49.05-1.75,.35,44.51,12.97,107.25,16.83,62.73,3.85,121.95,14.01,161.9,2.09,0,0,5.96-2.09,2.45,4.91-3.5,7.01-26.99,17.53-39.25,19.97,0,0,29.79-4.2,24.19,4.91-5.61,9.12-29.79,18.58-46.27,20.69,0,0,26.29-.7,19.63,6.65-6.66,7.37-41.71,19.98-62.38,21.38,0,0,25.94,0,16.82,7.71-9.11,7.71-53.62,17.52-63.78,15.07,0,0,23.13,8.06,11.57,12.96-11.57,4.9-42.41,7.01-57.83,.7,0,0,18.93,10.51,6.31,11.92-12.62,1.4-46.26-9.46-46.26-9.46,0,0,28.03,22.43,17.87,23.49-10.16,1.04-29.09-9.47-36.1-17.53,0,0,8.06,14.02,1.4,14.02s-19.62-14.02-19.62-14.02c0,0,4.56,18.93-1.75,18.22-6.31-.69-24.53-20.68-24.88-21.72-.35-1.05-18.23,15.43-61.68,41.35,0,0,4.2,53.27-16.12,98.14,0,0-12.62,31.89-25.24,40.29-12.17,8.11-7.71-24.84-6.12-38.51,.06-.51,.12-.99,.17-1.45,1.4-12.61-14.02,37.85-31.54,45.22-17.53,7.37,7.37-44.86,7.37-44.86,0,0-26.29,42.76-42.41,44.51-16.12,1.75,12.97-45.56,12.97-45.56,0,0-25.23,36.1-44.16,37.85-18.93,1.75,17.17-52.22,17.17-52.22,0,0-25.58,26.99-38.9,29.44-13.32,2.45,16.82-37.15,16.82-37.15,0,0-26.63,18.22-17.17-4.56,9.47-22.78,69.39-72.19,87.26-83.06,0,0-7.36-20.68-8.76-33.99,0,0-20.33-15.06-31.54-36.44,0,0,.7,16.81-3.51,13.65-4.21-3.15-9.11-26.62-9.11-26.62,0,0-7.36,12.97-12.62,10.52-5.25-2.46-.69-25.59-.69-25.59,0,0-18.23,9.46-18.23,4.91s8.4-9.82,8.4-9.82c0,0-26.28,3.51-25.23-3.51,1.05-7.01,15.77-10.51,15.77-10.51,0,0-21.38-2.8-24.53-8.06-3.15-5.26,14.02-7.71,14.02-7.71,0,0-27.69-11.56-33.99-21.02-6.31-9.46,15.07-7.01,15.07-7.01,0,0-22.08-14.72-25.94-25.23-3.85-10.52,22.78-1.05,22.78-1.05,0,0-23.48-11.21-32.24-24.89-8.76-13.67,25.23-5.96,25.23-5.96,0,0-25.58-19.27-26.64-30.13-1.04-10.87,19.98,6.3,19.98,6.3,0,0-51.16-54.33-26.64-54.33,6.2,0,61.68,51.17,132.47,72.9,0,0,76.41,19.28,91.82,29.1,0,0-24.53-41.01,1.75-82.02,26.28-41,70.09-59.57,65.88-81.3,0,0,9.81,1.41,5.96,21.03,0,0,11.22-11.56,11.22-24.53,0,0,8.4,13.32,2.45,28.39,0,0,14.72-11.56,11.57-29.79,0,0,20.67,9.46,11.21,38.55Z"/><g><path class="i" d="M73.01,166.94c-2.47-1.19-5-2.25-7.54-3.26-2.54-.98-5.14-1.9-7.78-2.38-1.29-.22-2.73-.37-3.72,.07-.93,.38-.86,1.61-.31,2.82,.48,1.05,1.29,2.19,2.13,3.19,.87,1.01,1.79,2,2.75,2.94,3.9,3.75,8.19,7.15,12.54,10.42,4.38,3.25,8.85,6.44,13.38,9.43,.59,.39,.75,1.19,.36,1.77-.34,.53-1,.7-1.56,.48l-.02-.02c-2.65-1.12-5.36-2.16-8.08-3.11-2.72-.95-5.48-1.83-8.21-2.34-1.33-.26-2.82-.41-3.67-.16-.18,.08-.26,.13-.23,.12,.02-.02,0-.04,.02,0,0,0-.01,0-.03,0,.01,.04,.02,.08,.03,.11-.03,.11,.09,.4,.15,.62,.13,.24,.24,.6,.36,.74,.41,.59,.78,1.27,1.2,1.8l1.27,1.52c.97,1.02,1.91,2.08,2.99,3.04,1.03,.99,2.1,1.95,3.2,2.88,1.08,.96,2.23,1.85,3.34,2.77,2.26,1.81,4.57,3.58,6.91,5.3,4.66,3.47,9.45,6.8,14.3,10h0c.55,.37,.7,1.11,.34,1.65-.28,.44-.81,.62-1.28,.5-2.1-.52-4.32-.93-6.49-1.11-1.09-.09-2.17-.1-3.2,.01-1.01,.1-2.04,.35-2.59,.85-.55,.46-.67,1.2-.41,2.16,.24,.93,.72,1.91,1.31,2.81,.54,.86,1.29,1.83,1.93,2.73,.72,.82,1.37,1.69,2.16,2.49,.77,.8,1.54,1.62,2.38,2.36,.8,.8,1.65,1.53,2.5,2.25,.84,.76,1.75,1.42,2.63,2.13,.9,.68,1.8,1.35,2.72,2,1.84,1.31,3.76,2.53,5.68,3.71,1.94,1.17,3.89,2.31,5.92,3.33-4.19-1.76-8.2-3.93-12.06-6.34-.97-.6-1.91-1.24-2.86-1.88-.92-.67-1.88-1.29-2.77-2.01-1.83-1.38-3.59-2.88-5.21-4.5-.85-.78-1.6-1.7-2.4-2.55-.72-.91-1.39-1.71-2.11-2.75-.67-.97-1.28-2.03-1.66-3.28-.19-.62-.28-1.32-.19-2.08,.09-.77,.53-1.53,1.08-2.04,1.17-1.03,2.49-1.28,3.69-1.47,1.22-.16,2.41-.16,3.59-.11,1.18,.06,2.34,.18,3.49,.35,1.16,.17,2.28,.38,3.45,.64l-.93,2.15c-4.97-3.15-9.82-6.43-14.59-9.84-2.39-1.71-4.72-3.5-7.04-5.32-1.15-.93-2.31-1.83-3.42-2.81-1.13-.95-2.24-1.93-3.33-2.96-1.11-.98-2.12-2.1-3.17-3.2l-1.52-1.84c-.46-.62-.81-1.24-1.21-1.86-.31-.46-.41-.82-.61-1.22-.14-.48-.32-.87-.33-1.5v-.43c0-.18,.05-.35,.1-.52,.06-.34,.24-.67,.48-.98,.21-.33,.5-.48,.77-.69,.28-.18,.53-.24,.8-.35,1.99-.51,3.48-.16,5.02,.08,3,.59,5.82,1.52,8.61,2.5,2.78,1.01,5.5,2.12,8.21,3.32l-1.23,2.23c-4.55-3.13-8.99-6.36-13.32-9.78-4.31-3.44-8.57-6.95-12.41-10.98-.96-1.01-1.88-2.07-2.76-3.17-.86-1.14-1.65-2.26-2.24-3.74-.23-.65-.45-1.43-.34-2.28,0-.21,.04-.43,.14-.64,.07-.22,.16-.43,.31-.62,.13-.2,.29-.36,.49-.49,.18-.15,.37-.25,.57-.32,1.6-.55,3.03-.2,4.39,.07,2.73,.66,5.28,1.71,7.8,2.84,2.5,1.13,4.94,2.42,7.32,3.77Z"/><path class="i" d="M125.34,153.85s2.77-.05,6.84,.67c1.01,.2,2.12,.38,3.26,.68,1.15,.29,2.37,.57,3.59,.99,1.24,.39,2.51,.82,3.77,1.33,1.28,.48,2.52,1.1,3.79,1.66,1.23,.65,2.45,1.32,3.65,2.01,1.14,.73,2.29,1.46,3.32,2.27,1.02,.81,2.04,1.56,2.88,2.43,.85,.85,1.68,1.61,2.34,2.44,.65,.82,1.23,1.59,1.73,2.27,.51,.68,.8,1.37,1.11,1.89,.58,1.07,.87,1.68,.87,1.68,0,0-.51-.49-1.32-1.35-.43-.42-.87-.98-1.48-1.53-.62-.53-1.32-1.14-2.04-1.82-.76-.65-1.67-1.25-2.54-1.97-.89-.71-1.96-1.29-2.96-2.02-1.02-.7-2.19-1.25-3.29-1.96-1.14-.63-2.33-1.23-3.5-1.82-1.21-.56-2.38-1.19-3.61-1.68-1.21-.5-2.37-1.07-3.55-1.51-1.17-.47-2.3-.91-3.39-1.32-1.08-.39-2.1-.78-3.06-1.13-1.92-.67-3.52-1.23-4.63-1.62-1.15-.39-1.79-.6-1.79-.6Z"/><path class="i" d="M167.63,233.05s-.14,.37-.39,1.04c-.24,.67-.59,1.67-1.03,2.94-.42,1.28-.96,2.82-1.46,4.61-.55,1.78-1.08,3.82-1.7,6.03-.58,2.21-1.16,4.63-1.77,7.19-.55,2.56-1.17,5.25-1.66,8.07-.26,1.41-.56,2.83-.79,4.28-.22,1.46-.46,2.93-.68,4.41-.53,2.96-.77,6.01-1.17,9.03-.37,3.03-.56,6.07-.85,9.06-.16,3-.32,5.95-.48,8.81-.05,2.86-.1,5.63-.15,8.25-.04,1.32-.03,2.6,.01,3.84,.03,1.24,.05,2.42,.08,3.58,.09,2.29,0,4.41,.15,6.26,.11,1.88,.2,3.5,.28,4.85,.14,2.67,.18,4.23,.18,4.23,0,0-.29-1.51-.73-4.16-.21-1.34-.47-2.95-.77-4.8-.35-1.86-.49-3.97-.72-6.28-.18-2.3-.55-4.8-.57-7.46-.08-2.65-.24-5.46-.23-8.35,.09-2.9,.08-5.9,.24-8.94,.26-3.03,.43-6.12,.77-9.21,.44-3.06,.71-6.14,1.29-9.14,.49-3,1.07-5.95,1.73-8.77,.58-2.84,1.38-5.52,2.06-8.09,.73-2.55,1.5-4.95,2.26-7.14,.76-2.19,1.52-4.17,2.25-5.91,.69-1.75,1.4-3.23,1.94-4.46,1.16-2.45,1.93-3.78,1.93-3.78Z"/><path class="i" d="M151.51,227.44s0,.72,.05,1.94c.03,.63,.02,1.36,.07,2.21,.05,.85,.1,1.82,.12,2.85,.02,1.04,.16,2.17,.21,3.36,.1,1.2,.1,2.45,.25,3.75,.12,1.29,.28,2.62,.37,3.98,.06,1.35,.29,2.73,.49,4.1,.16,1.37,.31,2.74,.48,4.09,.17,1.35,.44,2.66,.64,3.95,.23,1.27,.41,2.52,.58,3.7,.14,1.2,.42,2.29,.63,3.3,.88,4.08,1.24,6.92,1.24,6.92,0,0-1.25-2.53-2.79-6.49-.39-1-.85-2.06-1.12-3.25-.31-1.18-.65-2.41-.96-3.7-.28-1.3-.72-2.63-.9-4.01-.2-1.37-.4-2.78-.59-4.19-.16-1.41-.36-2.82-.39-4.22-.08-1.39-.09-2.77-.13-4.09-.08-1.33,.08-2.62,.12-3.84,.07-1.21,.11-2.36,.27-3.41,.13-1.06,.28-2.02,.42-2.87,.11-.85,.32-1.59,.44-2.2,.27-1.21,.5-1.88,.5-1.88Z"/><path class="i" d="M305.47,199.41s.22-.46,.77-1.19c.27-.35,.62-.78,1.08-1.2,.44-.46,.98-.9,1.6-1.39,.63-.44,1.33-.93,2.12-1.33,.79-.46,1.66-.8,2.56-1.17,.93-.29,1.88-.66,2.87-.87,.99-.2,2.02-.43,3.04-.5,1.02-.1,2.06-.19,3.07-.15,1.01,0,2,.03,2.96,.16,1.91,.17,3.64,.56,5.11,.96,.74,.17,1.39,.41,1.97,.63,.58,.2,1.08,.41,1.49,.57,.82,.34,1.27,.55,1.27,.55,0,0-.51,.02-1.39,0-.89,0-2.11-.13-3.59-.15-.73,0-1.53-.03-2.36-.08-.83-.04-1.71,.04-2.62,0-.9-.05-1.83,.07-2.77,.1-.94,0-1.89,.11-2.84,.21-.94,.05-1.87,.26-2.79,.38-.92,.15-1.81,.36-2.67,.55-.84,.28-1.7,.44-2.45,.73-.78,.26-1.49,.55-2.16,.82-.64,.3-1.27,.56-1.78,.85-.53,.28-.98,.54-1.34,.77-.73,.45-1.14,.77-1.14,.77Z"/><path class="i" d="M338.65,230.49s.14-.4,.52-1.06c.38-.66,.97-1.65,1.96-2.72,.95-1.1,2.28-2.27,3.95-3.44,1.67-1.17,3.73-2.22,6.09-3.09,1.19-.42,2.44-.77,3.76-1.11,.66-.12,1.33-.26,2.02-.4,.69-.14,1.39-.26,2.1-.32,1.42-.14,2.89-.35,4.39-.34,1.5-.05,3.04-.09,4.6,.05,3.15,.16,6.22,.4,9.45,.67,3.2,.28,6.45,.55,9.71,.83,3.24,.31,6.49,.62,9.69,.93,3.2,.29,6.35,.66,9.39,.97,6.08,.67,11.76,1.29,16.62,1.82,4.87,.54,8.91,1.1,11.75,1.44,2.83,.37,4.45,.62,4.45,.62,0,0-1.64,0-4.49-.08-2.86-.09-6.95-.15-11.85-.38-2.45-.12-5.11-.24-7.92-.36-2.8-.2-5.75-.4-8.8-.61-3.06-.23-6.21-.44-9.41-.74-3.2-.26-6.46-.55-9.7-.83-3.25-.3-6.5-.62-9.7-.92-3.18-.29-6.39-.69-9.36-.92-1.5-.17-2.96-.15-4.41-.2-1.45-.09-2.84,.06-4.22,.12-1.38,.04-2.67,.34-3.96,.47-1.26,.24-2.48,.5-3.63,.82-1.14,.37-2.24,.67-3.23,1.12-1.03,.38-1.94,.86-2.81,1.32-1.69,.96-3.09,1.97-4.11,2.94-1.04,.95-1.76,1.8-2.21,2.42-.46,.6-.65,.97-.65,.97Z"/><path class="i" d="M483.27,280.71c3.54-.28,7.09-.43,10.65-.22,1.77,.11,3.56,.28,5.33,.69,.88,.21,1.77,.49,2.62,.99,.41,.25,.83,.58,1.12,1.06,.34,.48,.38,1.12,.3,1.67-.07,.26-.14,.52-.25,.76-.14,.24-.19,.4-.41,.72-.28,.33-.55,.67-1.01,.99-.83,.65-1.64,1.01-2.49,1.38-1.7,.7-3.44,1.17-5.19,1.59-3.49,.81-7.02,1.36-10.56,1.81-3.53,.44-7.08,.77-10.63,1.02-3.55,.26-7.11,.47-10.66,.53-3.55,.08-7.11,.1-10.68,.02-1.79-.05-3.57-.12-5.36-.23-1.79-.13-3.58-.28-5.45-.64-.71-.13-1.16-.82-1.03-1.52,.14-.71,.82-1.17,1.53-1.03h.02c2.61,.52,5.13,1.14,7.67,1.94,1.26,.4,2.52,.84,3.77,1.39,1.24,.57,2.49,1.14,3.69,2.19,.57,.53,1.23,1.17,1.5,2.28,.05,.28,.08,.57,.09,.85-.03,.29-.08,.57-.14,.85-.1,.23-.2,.47-.32,.71-.11,.22-.26,.38-.39,.57-.28,.38-.58,.61-.88,.91-.32,.25-.55,.44-.98,.7-.29,.16-.53,.33-.87,.49l-1.05,.46c-2.67,.98-5.33,1.32-7.97,1.55-5.28,.42-10.49,.2-15.68-.15-5.2-.39-10.35-.95-15.51-1.73l.58-2.33c2.59,.93,5.06,2.01,7.47,3.37,1.2,.69,2.38,1.44,3.48,2.46,.53,.54,1.09,1.14,1.39,2.11,.16,.47,.16,1.06,0,1.58-.08,.26-.22,.48-.34,.7-.14,.2-.3,.37-.46,.53-1.32,1.15-2.69,1.5-4.03,1.9l-1.01,.25-1.03,.17-1.97,.32c-1.37,.09-2.77,.28-4.12,.26-1.35,0-2.71,.04-4.05-.05-1.35-.05-2.69-.16-4.02-.29-1.34-.09-2.67-.3-3.99-.49-1.33-.16-2.65-.42-3.97-.63l-3.94-.75c-5.24-1.08-10.43-2.39-15.52-4.01,2.59,.65,5.2,1.2,7.81,1.73,2.6,.53,5.24,.99,7.86,1.41l3.94,.56c1.32,.14,2.64,.33,3.96,.44,1.32,.12,2.64,.24,3.97,.3,1.31,.1,2.64,.17,3.95,.17,1.32,.06,2.63,0,3.94-.05,1.32-.02,2.58-.24,3.86-.35l1.97-.38,.93-.18,.92-.26c1.19-.37,2.46-.85,3.12-1.51,.34-.35,.34-.5,.25-.8-.11-.31-.45-.76-.87-1.13-.88-.78-1.97-1.45-3.1-2.05-2.28-1.2-4.73-2.2-7.17-3.07-.63-.23-.95-.91-.73-1.54,.2-.55,.75-.87,1.31-.78,5.06,.7,10.19,1.23,15.31,1.56,5.11,.31,10.25,.46,15.28,0,2.49-.22,5-.61,7.19-1.44l.7-.32c.26-.12,.56-.32,.83-.47,.12-.07,.4-.3,.59-.43,.15-.16,.39-.33,.48-.48,.27-.34,.28-.48,.26-.62-.02-.17-.28-.53-.65-.86-.74-.68-1.85-1.26-2.95-1.76-1.12-.5-2.29-.93-3.49-1.32-2.39-.77-4.88-1.41-7.33-1.92l.52-2.55c1.61,.32,3.36,.49,5.08,.63,1.75,.13,3.51,.22,5.26,.27,3.51,.13,7.04,.14,10.56,.09,7.05-.1,14.12-.32,21.13-.99,3.51-.33,7-.78,10.43-1.47,1.7-.35,3.41-.78,5.01-1.36,.78-.29,1.62-.65,2.2-1.07,.31-.16,.62-.48,.92-.82,.02-.04,.17-.28,.26-.42,.08-.16,.13-.32,.2-.49,.14-.63-.18-1.23-.87-1.67-.66-.44-1.48-.75-2.29-.99-1.66-.46-3.41-.73-5.16-.91-3.51-.34-7.06-.45-10.6-.39Z"/></g><g><path class="e" d="M230.13,395.99c-5.17,.05-6.98,5.34-7.69,9.6-.12,.6-.21,1.19-.26,1.72-.04,.25-.04,.53-.04,.81-.16,2.45,.09,5.66,2.59,5.79,.75,.04,1.52-.16,2.23-.49,4.46-1.49,5.39-6.95,5.94-11.02,.26-1.94,.13-6.43-2.76-6.4Z"/><path class="e" d="M213.61,426.64c-3.25-.94-6.13,2.77-7.44,5.24-.91,1.72-2.18,4.7-1.3,6.7-.1,1.13,.04,2.25,.75,2.98,2.08,2.19,5.28-.24,6.74-2.01,1.61-1.98,2.66-4.29,3.03-6.81,.26-1.83,.58-5.4-1.77-6.09Z"/><path class="e" d="M225.98,438.32c-.98-.8-2.52-.15-3.28,.69-.66,.71-1.17,1.41-1.5,2.33-.16,.44-.28,1.06-.19,1.61-.03,.29-.03,.57,.03,.85,.1,.29,.29,.5,.58,.62,1.8,.55,3.43-1.17,4.19-2.62,.44-.85,1.13-2.69,.18-3.47Z"/><path class="e" d="M215.86,456.29c-.12-1.26-.85-2.86-2.32-2.89-3.32-.1-5.34,2.94-6.42,5.67-.42,1.04-.81,2.05-.98,3.18-.13,.87-.47,2.4-.11,3.23,.21,.49,.51,.86,.86,1.12,.26,.39,.62,.69,1.17,.84,4.54,1.31,7.2-5.75,7.66-9.13,.01-.09,.13-.65,0-.09,.14-.64,.2-1.27,.13-1.93Z"/><path class="e" d="M194.48,450.99c-.46-.7-1.46-.67-2.17-.49-1.28,.32-2.31,1.11-3.09,2.09-.51,.56-.87,1.26-1.15,1.95-.31,.74-.62,1.53-.71,2.33-.08,.76,.14,1.34,.78,1.75,.6,.38,1.59,.08,2.16-.2,2.21-1.12,4.26-3.42,4.59-5.91,.08-.59-.09-1.04-.4-1.53Z"/><path class="e" d="M176.93,429.4c-2.96,2.48-5.11,5.86-6.53,9.41-.57,1.4-1.24,3.45-.15,4.8,.18,.21,.38,.39,.6,.54,1.59,3.19,6.82-.22,8.35-1.76,2.55-2.59,4.68-6.55,4.78-10.22,.12-4.52-4.01-5.3-7.06-2.77Z"/><path class="e" d="M205.38,400.61c-.35-.64-.87-.89-1.44-.91-.08-.14-.23-.24-.5-.25-.9-.06-1.63,.47-2.28,1.03-.41,.34-.74,.8-1.03,1.24-.06,.08-.08,.12-.12,.18-.24,.25-.46,.53-.65,.83-.69,1.05-1.18,2.23-1.57,3.41-.31,.93,0,1.99,.89,2.42,1.93,.92,4.27-1.49,5.24-2.87,.84-1.2,2.29-3.56,1.46-5.08Z"/><path class="e" d="M184.12,393.5c-.17-.52-.6-.73-1.08-.8v-.03c-.13-.27-.42-.39-.71-.3-.53,.16-.98,.5-1.38,.9-.82,.53-1.55,1.35-1.73,2.24-.4,.65-.71,1.39-.71,2.08,0,1.04,.86,1.35,1.77,1.24,1.16-.14,2.04-1.03,2.78-1.84,.48-.54,.96-1.41,1.09-2.12,.09-.5,.15-.87-.02-1.38Z"/><path class="e" d="M161.38,409.25c-2.92,.4-4.88,2.87-6.39,5.27-1.4,1.95-2.47,4.17-3.1,6.44-.32,1.16-.55,3.3,.92,3.84,1.53,.58,3.17,.05,4.53-.79,1.42-.88,2.72-2.17,3.76-3.49,1.29-1.63,2.96-3.65,3.42-5.71,.58-2.55,.49-6.06-3.14-5.56Z"/><path class="e" d="M144.81,442.15c-.85-.62-1.72-.29-2.56,.2-1.03,.61-1.97,1.57-2.52,2.63-.15,.29-.31,.68-.41,1.09-.22,.32-.44,.64-.65,.98-.55,.87-1.01,1.82-1.05,2.85-.05,1.18,.96,1.74,2.02,1.49,1.11-.25,2.05-1.08,2.82-1.88,.21-.21,.41-.45,.61-.67-.7,.83,.06,0,.25-.31,.27-.4,.52-.82,.77-1.23,.66-1.14,2.24-4.06,.73-5.15Z"/><path class="e" d="M114.65,489.7c.51-.96,.85-2.02,.59-3.1-.41-1.69-2.66-1.01-3.61-.46-.78,.46-1.34,1.25-1.8,2.01-.12,.18-.23,.38-.33,.58-.09,.15-.53,.88-.05,.19-.89,1.27-1.72,2.43-1.45,4.06,.11,.31,.31,.53,.62,.67,.28,.06,.55,.09,.81,.09,.94,.6,2.53-.32,3.19-.94,.54-.51,.94-1.06,1.33-1.68,0-.02,0-.03,.02-.03,.04-.06,.08-.11,.12-.17v-.02c.23-.35,.43-.73,.51-1.12,.01-.02,.03-.04,.05-.1Z"/><path class="e" d="M137.79,464.67c-.24-.6-.68-.81-1.29-.9-1.75-.24-3.33,1.19-4.37,2.41-.39,.47-.83,1.13-1.14,1.83-.45,.63-.81,1.32-1.07,2.05,.24-.68-.19,.51-.22,.69-.11,.51-.14,.96,.03,1.45,.43,1.26,2.05,.93,2.95,.49,1-.49,1.87-1.2,2.69-1.94,1.53-1.38,3.29-3.92,2.43-6.08Z"/><g><path class="e" d="M160.24,462.21c.08-.07,.16-.13,.23-.18,.08-.08,.04-.05-.23,.18Z"/><path class="e" d="M163.63,461.1c-.72-.2-1.34-.13-2.01,.19-.43,.19-.79,.44-1.15,.73-.19,.19-1.16,1.07-1.18,1.09-.37,.47-.82,1.23-1.02,1.98-.4,.63-.76,1.31-.75,1.94,0,1.13,.79,1.79,1.93,1.6,1-.18,1.92-.82,2.67-1.48,.79-.68,1.42-1.65,1.89-2.58,.29-.58,.48-1.16,.55-1.8,.07-.57-.29-1.49-.93-1.66Z"/></g><path class="e" d="M155.51,483.59c-2.28,.36-3.87,2.74-4.86,4.59-.03,.05-.05,.08-.07,.13-.97,1.58-3.18,4.79-1.83,6.61,1.77,2.38,5.5-.59,6.77-2.04,.72-.84,1.31-1.8,1.8-2.81,.16-.35,.31-.71,.45-1.07,.04-.19,.06-.34,.08-.44,.07-.36,.15-.72,.23-1.08,.41-2.06,.07-4.29-2.57-3.89Z"/><path class="e" d="M137.21,508.7c-.95,.23-2.37,1.17-2.37,2.34-.11,.21-.22,.42-.33,.67-.22,.46-.38,1.18,.22,1.44,1.03,.44,2.26-.41,2.86-1.22,.52-.71,.8-1.46,.91-2.32,.09-.73-.7-1.05-1.29-.91Z"/><path class="e" d="M182.75,489.18c-.52-.63-1.63-.42-2.26-.15-.9,.39-1.65,1.1-2.24,1.87,.22-.3-.95,1.24-.34,.5-.24,.29-.44,.66-.59,1.01-.07,.15-.12,.31-.18,.47-.06,.11-.14,.25-.19,.37-.46,.88-1.07,2.23-.6,3.22,.84,1.76,3.27,.3,4.18-.62,.81-.82,1.4-1.82,1.91-2.82,.59-1.16,1.26-2.71,.31-3.85Z"/><path class="e" d="M213.39,485.88c.02-.5-.23-1.09-.75-1.27-1.29-.43-2.47,.13-3.45,1-.5,.28-.94,.67-1.25,1.12-.5,.72-.89,1.45-1.2,2.28-.12,.3-.52,.91-.27,.63-.03,.08-.05,.18-.08,.26-.09,.16-.17,.33-.24,.5-.44,1.05-1.31,3.07-.2,3.99,1.55,1.29,3.56-.44,4.66-1.86,1.62-1.87,2.69-4.1,2.78-6.66Z"/><path class="e" d="M92.89,472.02c-.14-.63-.81-1.12-1.41-1.17-.18,0-.34,.03-.51,.06-.48-.34-1.18-.09-1.63,.21-1.13,.78-2.01,2-2.53,3.25-.13,.32-.26,.64-.35,.98,.19-.69-.15,.46-.21,.65-.13,.45-.21,1.04-.03,1.49,.62,1.46,2.47,.78,3.46,.21,1.78-1.03,3.7-3.51,3.22-5.67Z"/><path class="e" d="M111.49,447.65c-.61-.2-1.24-.18-1.85-.02-2.33,.11-4.34,3.62-5.1,5.46-.52,1.26-.88,3.19,.99,3.41,2.14,.26,3.85-1.52,4.97-3.21,.48-.58,.93-1.2,1.31-1.88,.54-.98,1.28-3.25-.31-3.76Z"/><path class="e" d="M132.76,428.49c-.08-.05-.17-.11-.26-.16-.13-.79-1.55-.09-1.91,.34-.64,.43-1.16,1.08-1.3,1.74-.05,.08-.1,.14-.14,.21-.2,.35-.44,1.17-.02,1.49,1.81,1.35,5.39-2.32,3.61-3.62Z"/><path class="e" d="M99.98,435.55c-1.76-.86-4.09,.95-5.21,2.16-.96,1.01-2.3,2.61-2.52,4.19-.11,.33-.2,.66-.25,1-.16,1.06,.63,1.81,1.6,1.98,1.03,.18,2.08-.34,2.91-.87,2.27-1.43,4.15-4.38,4.32-7.07,.04-.6-.28-1.13-.84-1.38Z"/><path class="e" d="M138.48,405.66c-.51-1.52-2.44-1.44-3.67-1.09-2.93,.84-6.05,3.41-7.69,5.97-.92,1.4-3.33,5.28-1.23,6.29,.41,.56,1.12,.95,1.74,.98,1.42,.08,2.82-.79,4-1.47,.36-.21,.41-.25,.14-.08,.52-.23,.99-.55,1.4-.94,.55-.5,1.1-1.02,1.63-1.54,1.31-1.29,2.48-2.79,3.28-4.45,.53-1.09,.79-2.52,.4-3.68Z"/><path class="e" d="M158.14,389.83c-.71-.95-2.21-.31-2.98,.13-.79,.45-1.47,1.23-1.98,2.07-.16,.19-.3,.37-.44,.55-.85,1.13-2.61,3.95-.15,4.37,1.33,.23,2.82-.95,3.7-1.8,.46-.45,.87-.94,1.23-1.47,.22-.31,.41-.63,.6-.96,.19-.35,.3-.72,.32-1.11-.04,.23-.04,.25,0,.05,.15-.71,.12-1.23-.32-1.83Z"/><path class="e" d="M176.13,370.36c-1.23,0-2.38,.91-2.93,1.97-.4,.77-.45,2.16,.77,2.16s2.37-.91,2.92-1.97c.41-.77,.46-2.16-.76-2.16Z"/><path class="e" d="M217.69,382.15c-1.93-.57-3.59,1.53-4.39,2.98,.38-.7-.1,.16-.24,.4-.15,.25-.28,.5-.41,.75-.34,.67-.62,1.4-.84,2.13-.18,.61-.23,1.29-.04,1.89,.11,.33,.31,.52,.57,.63,.24,.56,.73,.91,1.59,.68,2.68-.69,3.63-3.64,4.5-5.93-.36,.96,.17-.47,.11-.25,.11-.4,.21-.88,.27-1.28,.11-.84-.24-1.75-1.11-2.02Z"/></g><path class="m" d="M300.51,11.39c.65,3.76,.19,7.35-1.24,10.89-2.86,7.06-7.85,12.57-13.27,17.75,5.61-.51,11.42-4.94,15.19-8.61,1.99-1.93,3.35-4.16,4.3-6.55-.6,.69-.96,1.06-.96,1.06,3.86-19.62-5.96-21.03-5.96-21.03,.05,.26,.06,.52,.09,.77,.77,1.87,1.49,3.75,1.83,5.72Z"/><path class="m" d="M317.4,6.92c.22,4.63-.29,9.3-1.81,13.68-3.02,8.74-8.71,17.5-17.07,21.86,8.54-1,15.97-6.66,20.22-14.12,3.55-10.49,.39-19.91-1.62-24.32,.15,.99,.24,1.98,.28,2.9Z"/><path class="q" d="M596.65,221.92c-7,2.65-14.38,3.93-21.79,4.94-8.44,1.15-16.91,2.28-25.39,3.04-22.46,2.04-45.09,2.01-67.48-.82-42.99-5.43-85.71-18.29-129.35-11.95-.61,.09-1.29-.67-.68-1.17,9.32-7.68,20.15-9.73,31.3-11.15-30.22-4.77-48.99-10.08-47.86-10.31,1.76-.34,54.32-22.07,71.85-49.05,17.52-26.99-6.66-42.76-6.66-42.76-16.47-55.02-59.58-64.13-59.58-64.13,8.57-26.35-7.59-36.59-10.71-38.28,6.86,10.99,6.19,24.9,1.38,37.02-3.06,7.71-8.12,14.46-13.27,20.88-.32,.4-.63,.81-.94,1.22,4.5-3.9,9.68-7.02,15.64-8.91,.73-.23-13.83,16.45-18.69,29.17-1.82,4.73-2.99,9.58-3.97,14.47,3.08-3.58,6.78-6.56,11.28-8.52,.62-.27,1.32,.29,.96,.96-3.9,7.06-7.7,14.39-9.54,22.3-.37,1.58-.64,3.15-.86,4.73,2.24-2.87,4.89-5.37,8.03-7.32,.57-.34,1.14,.22,1.03,.8-1.73,9.46-4.98,18.67-5.06,28.38-.07,8.59,.97,17.15,1.73,25.7,.42,4.79-3.61,6.03-7.58,7.75-6.6,2.88-13.86,4.68-21.01,5.44-14.72,1.59-31.21-1.58-43.62-9.97-9.25-6.25-12.49-15.14-14.7-25.27-.59,5.92-.2,11.81,.88,17.71,.14,.76-.86,1.26-1.28,.55-5.12-8.67-8.49-17.8-10.1-27.18,.77,22.02,10.36,38.05,10.36,38.05-9.47-6.03-41.92-15.63-65.56-22.14,.53,.45,1.06,.89,1.6,1.34,14.52,5.05,29.47,12.22,34.25,27.26,.19,.57-.51,1.12-1.02,.79-15.06-9.85-31.18-17.5-48.58-22.23-21.04-5.71-42.29-10.51-62.64-18.53-13.19-5.21-26.34-11.03-38.9-17.6C30.06,106.63,6.01,90.94,2.24,67.17c-10.74,6.22,20.2,41.48,28.87,51.01,.84,.78,1.66,1.54,2.45,2.23,7.36,6.42,15.16,12.76,23.55,17.8,7.52,4.52,15.49,8.22,23.03,12.69,.55,.33,.38,1.41-.35,1.31-16.66-2.18-31.57-9.14-44.87-19.22-7.25-5.49-18.09-12.32-20.82-21.77-.62,.54-.93,1.5-.78,3.05,1.05,10.86,26.64,30.13,26.64,30.13,0,0-1.24-.27-3.17-.64,6.75,3.51,12.9,8.31,16.74,14.65,.22,.36,.03,.94-.42,1.03-5.09,.91-31.94-5.24-39.79-12.52,.11,.95,.54,2.09,1.4,3.44,8.76,13.68,32.24,24.89,32.24,24.89,0,0-1.63-.58-4.04-1.3,8.36,4.62,15.87,10.65,20.41,19.16,.29,.56-.19,1.16-.8,1.03-8.45-1.87-16.99-4.4-24.74-8.34-5.33-2.71-11.4-6.45-13.91-12.07-.17,.67-.1,1.52,.28,2.58,3.85,10.51,25.94,25.23,25.94,25.23,0,0-1.12-.13-2.75-.21,10.16,4.82,19.44,10.97,27.77,18.98,.43,.42,.12,1.23-.5,1.21-8.44-.44-17.28-3.17-25.02-6.41-5.13-2.15-12.7-5.42-15.38-10.99-.61,1.06-.49,2.5,.81,4.44,6.3,9.47,33.99,21.02,33.99,21.02,0,0-17.17,2.45-14.02,7.71,3.16,5.26,24.53,8.06,24.53,8.06,0,0-14.72,3.5-15.77,10.51-1.05,7.02,25.23,3.51,25.23,3.51,0,0-8.4,5.26-8.4,9.82s18.23-4.91,18.23-4.91c0,0-4.56,23.12,.69,25.59,5.26,2.46,12.62-10.52,12.62-10.52,0,0,4.91,23.48,9.11,26.62,4.21,3.16,3.51-13.65,3.51-13.65,11.21,21.38,31.54,36.44,31.54,36.44,1.4,13.31,8.76,33.99,8.76,33.99-9.89,6.02-32.69,23.86-52.66,42.45,2.02-1.58,4.04-3.16,6.11-4.68,6.98-5.17,14.14-10.1,21.18-15.18,7.08-5.09,14.29-10.04,22.22-13.73,.59-.27,1.37,.31,.96,.95-4.47,7.04-10.24,13.08-16.08,19-6.44,6.52-12.68,13.24-19.18,19.7-11.03,10.94-22.06,21.86-32.99,32.88-3.41,3.43-7.39,7.58-12.08,9.2-2.16,.76-5.25,.77-6.65-1.18-1.71,12.43,19.08-1.78,19.08-1.78,0,0-7.24,9.53-13.06,18.95,25.82-28.82,53.21-56.29,84.55-79.14,.62-.45,1.24,.39,.96,.96-6.63,13.54-19.09,22.9-28.94,33.93-11.86,13.29-24.28,25.99-37.03,38.44-3.19,3.13-6.26,6.37-9.42,9.55-3.07,3.11-6.41,6.71-10.37,8.71-2.1,1.06-4.66,1.64-5.86-.9-1.71,4.45-1.56,7.37,2.34,6.64,13.32-2.45,38.9-29.44,38.9-29.44,0,0-22.82,34.12-22.66,47.23,2.07-11.54,16.51-31.45,19.03-35.04,6.84-9.8,14.31-19.2,21.95-28.36,11.63-13.97,24.38-27.41,40.19-36.65,.5-.28,1.26,.2,1.03,.79-4.34,11.45-11.51,21.39-18.3,31.48-7.35,10.92-13.89,22.46-20.43,33.88-6.62,11.57-14.15,24.66-24.79,33.41,15.68-10.54,30.94-32.35,30.94-32.35,0,0-27.65,44.99-14.05,45.58-1.16-10.74,11.2-33.98,13.26-38.04,4.45-8.74,9.12-17.41,13.88-25.98,9-16.21,18.84-32.56,32.68-45.15,.53-.48,1.31,0,1.17,.68-4.85,23.53-16.75,44.86-25.66,66.97-5.84,14.5-14.59,26.68-25.34,37.46,15.38-11.01,33.51-40.47,33.51-40.47,0,0-21.3,44.7-10.6,45.55-.54-10.35,6.19-29.91,7.22-32.94,10.25-29.97,23.19-59.38,37.47-87.62,.39-.77,1.39-.19,1.28,.54-3.32,22.68-10.5,44.58-16.07,66.76-2.76,10.99-5.54,22.06-9.73,32.61-.69,1.75-1.53,3.41-2.42,5.02,10.61-16.61,18.02-39.18,17.04-30.28-.05,.46-.11,.94-.17,1.45-1.2,10.34-4.03,31.68-.09,37.98-.72-3.07-.9-6.36-.95-8.95-.19-10.53,1.46-21.12,3.43-31.45,5.57-29.31,11.57-58.71,20.58-87.18,.22-.69,1.12-.64,1.36,0,4.77,12.98,5.23,27.16,4.61,40.83-.56,12.65-1.71,25.33-2.96,37.93-1.11,11.1-2.81,23.28-7.05,34.1,7.15-11.7,12.43-25.05,12.43-25.05,20.32-44.87,16.12-98.14,16.12-98.14,43.45-25.92,61.32-42.41,61.68-41.35,.36,1.04,18.57,21.04,24.88,21.72,6.31,.71,1.75-18.22,1.75-18.22,0,0,12.96,14.02,19.62,14.02s-1.4-14.02-1.4-14.02c7.01,8.05,25.94,18.57,36.1,17.53,10.16-1.05-17.87-23.49-17.87-23.49,0,0,33.64,10.87,46.26,9.46,12.62-1.4-6.31-11.92-6.31-11.92,15.42,6.31,46.26,4.2,57.83-.7,2.22-.94,3.15-2,3.22-3.1-6.25,2.43-14.4,.39-20.58-.67-7.86-1.35-17.36-2.62-23.21-8.59-.34-.36-.22-1.07,.31-1.18,9.62-1.82,20.32-1.76,30.16,.81,12.38,1.39,53.58-7.92,62.31-15.3,1.86-1.58,2.24-2.82,1.7-3.82-8.3,6.41-20.28,6.89-30.25,8.25-8.26,1.12-20.62,3.57-27.55-2.54-.26-.23-.29-.78,0-.98,3.67-2.86,9.15-3.59,13.59-4.53,6.23-1.32,12.54-1.86,18.86-2.69,3.66-.49,7.57-1.05,11.48-1.24-2.67-.15-4.65-.16-4.65-.16,20.67-1.4,55.72-14.01,62.38-21.38,.15-.16,.27-.32,.39-.48-3.61,1.86-7.53,3.1-11.44,4.3-7.82,2.41-15.55,4.91-23.66,6.14-7.63,1.16-20.44,3.98-26.53-2.34-.38-.39-.18-1,.31-1.16,5.88-2.1,12.11-2.01,18.17-3.26,6.46-1.34,12.72-3.61,19.14-5.13,6.66-1.59,15.29-3.84,22.69-2.56-5.2-2.5-18.7-2.14-18.7-2.14,16.47-2.11,40.66-11.57,46.27-20.69,.62-1.01,.79-1.86,.62-2.57-.29-.18-.61-.35-.94-.49-2.13,3.74-6.25,6.26-10.01,8.09-5.68,2.76-11.73,4.68-17.81,6.32-8.48,2.26-16.99,4.36-25.72,5.4-8.12,.97-17.51,2.77-25.53,.63-.7-.19-.63-1.13,0-1.36,19.45-6.87,38.95-13.54,58.88-18.92,3.73-1,10.48-2.9,16.07-2.53-7.28-1.23-19.74,.53-19.74,.53,12.27-2.44,35.75-12.96,39.25-19.97,.72-1.44,1.02-2.47,1.08-3.25-3.28,2.98-7.2,5.23-11.42,6.84Zm-267.85-15.54c-8.07,3.1-15.43,7.89-20.78,14.77-5.32,6.87-8.69,14.89-11.44,23.06-.23,.67-1.12,.66-1.35,0-1.52-4.25-2.07-8.68-2.81-13.09,.08,15.58,.12,31.41-3.64,46.56-4.32,17.4-13.97,31.88-29.44,41.24-.58,.35-1.11-.24-1.02-.8,.36-2.59,.49-5.25,.56-7.93-5.42,7.99-12.63,15.09-19.61,21.03-9.55,8.12-22.19,17.62-35.42,17.22-.56,0-.83-.58-.6-1.05,3.69-7.71,8.08-15.12,10.83-23.21-6.64,9.97-12.57,21.96-23.42,27.45-.48,.25-1.02-.04-1.06-.6-.58-11.28,1.3-22.39,2.62-33.55-5.08,10.3-9.88,20.74-12.92,31.87-.18,.67-1.18,.68-1.35,0-2.73-10.79-1.42-21.75-1.04-32.71-3.28,8.95-5.11,18.35-5.99,27.86-.07,.72-1.27,1.01-1.38,.18-.01-.07-.02-.12-.03-.18h0c-3.38-25.13-6.56-50.74-3.86-76.08,2.44-22.82,10.16-45.91,29.18-59.79-4.29,.98-8.59,1.93-12.76,3.37-.72,.25-1.08-.67-.68-1.17,5.07-6.26,11.32-11.98,18.26-16.1,5.91-3.51,12.93-6.4,19.79-4.61-1.89-4.55-4.43-8.66-7.67-12.42-.5-.57,.14-1.54,.85-1.09,5.07,3.21,13.29,6.66,17.24,12.19-.64-2.12-1.46-4.1-2.31-5.62-.28-.49,.18-1.26,.79-1.02,7.78,3.04,11.11,10.68,14.01,17.95,4.05-5.37,9.5-9.41,15.98-11.41,.6-.18,1.09,.51,.79,1.02-2.81,4.84-5.58,9.68-8.06,14.69,9.96-7.04,23.12-11.81,35.21-9.64,.48,.08,.61,.66,.42,1.03-3.83,7.6-8.23,14.87-11.53,22.66,1.28-.97,2.59-1.91,3.94-2.79,7.38-4.79,15.47-7.88,23.97-10.12,8.19-2.15,17.63-3.83,25.73-.5,.65,.26,.68,1.09,0,1.35Z"/><path class="q" d="M156.24,328.68c.15-.25,.3-.5,.47-.75-.3-1.59-.54-3.19-.65-4.76-.84-11.59-.6-23.38,.26-34.97,1.45-19.22,5.51-37.98,11.64-56.2-5.73,7.52-9.76,16.46-12.38,25.42-.19,.64-1.19,.69-1.35,0-1.59-6.78-3.22-13.81-4.1-20.88-.06,1.76-.09,3.51-.08,5.27,.06,7.32,1.46,14.9,.62,22.18-.38,3.31-1.64,6.51-2.31,9.77-.85,4.18-1.46,8.39-1.86,12.65-.71,7.79-1.01,15.61-1.76,23.39-.06,.58-.74,.96-1.2,.49-9.93-10.16-16.96-25.19-18.47-39.64-1.63,7.51-3.12,15.04-4.89,22.51-.17,.71-1.14,.62-1.35,0-2.72-8.04-4.56-16.32-5.32-24.76-1.7,6.35-4.21,12.92-8.06,17.99-.97,1.29-2.13,2.66-3.51,3.6,4.84-1.24,10.2-10.68,10.2-10.68,0,0,4.91,23.48,9.11,26.62,4.21,3.16,3.51-13.65,3.51-13.65,10.85,20.67,30.22,35.45,31.48,36.39Z"/><path class="q" d="M425.38,326.69c-11.96-2.06-23.96-4.02-35.67-7.21-3.97-1.1-8.04-2.2-11.92-3.67,.22,.21,.44,.43,.65,.64,8.42,4.11,16.77,8.38,24.24,14.12,.55,.42,.38,1.24-.35,1.3-6.37,.58-12.64-.57-18.91-1.58-5.65-.91-11.3-2.09-16.86-3.42-3.6-.85-7.2-1.83-10.76-2.97,5.25,4.63,10.11,9.69,14.43,15.19,.42,.53,.06,1.36-.68,1.17-8.53-2.17-16.12-6.56-23.64-11.01-1.62-.96-3.37-1.79-5.12-2.62,2.12,3.03,3.81,6.29,4.74,9.97,.13,.52-.33,1.01-.86,.87-9.79-2.71-18.23-8.91-26.18-15.25,4.26,6.46,8,13.23,9.87,20.69,.17,.63-.48,1.05-1.03,.79-10.93-5.18-23.14-13.73-29.46-24.53-19.34,22.16-45.65,40.18-74.16,47.04-14.58,3.51-31.22,4.61-45.54-.7-6.13-2.27-11.36-5.52-15.19-10.93-.38-.53-.74-1.08-1.09-1.62,1.74,5.7,3.18,9.77,3.18,9.77-2.71,1.65-6.41,4.2-10.73,7.4,5.03-1.86,11.19-4.43,16.22-1.7,.34,.18,.44,.63,.25,.96-4.39,7.99-11.74,14.43-17.52,21.42-3.14,3.79-6.23,7.61-9.23,11.5,11.08-9.69,22.11-19.55,35.61-25.71,.49-.23,1.28,.15,1.03,.79-2.86,7.49-7.97,13.74-11.69,20.77,7.47-6.81,12.34-16.7,22.04-20.7,.42-.17,.9,.27,.89,.68-.29,7.72-5.06,14.71-7.87,21.69-.85,2.1-1.69,4.22-2.52,6.31,1.47-3.11,2.92-6.25,4.62-9.17,3.96-6.84,8.03-13.73,13.69-19.33,.35-.35,1.06-.22,1.17,.31,1.36,6.46-.84,13.23-2.04,19.55-.94,4.97-1.7,9.96-2.42,14.97,1.52-5.41,3.12-10.79,4.74-16.18,1.58-5.25,2.97-11.76,7.19-15.6,.47-.44,1.15-.12,1.2,.49,.84,9.53,0,19.02-.76,28.52,.4-1.87,.79-3.74,1.23-5.6,1.69-7.12,3.93-13.98,6.27-20.9,1.05-3.1,2.33-7.71,6.33-7.71,3.55,0,6.47,4.67,8.02,7.3,3.04,5.12,5.03,10.89,6.71,16.59,2.16,7.3,3.71,14.84,3.97,22.46,.1,2.86,.13,5.76,.06,8.66,5.44-30.47,3.45-55.85,3.45-55.85,43.45-25.92,61.32-42.41,61.68-41.35,.36,1.04,18.57,21.04,24.88,21.72,6.31,.71,1.75-18.22,1.75-18.22,0,0,12.96,14.02,19.62,14.02s-1.4-14.02-1.4-14.02c7.01,8.05,25.94,18.57,36.1,17.53,10.16-1.05-17.87-23.49-17.87-23.49,0,0,33.64,10.87,46.26,9.46,12.62-1.4-6.31-11.92-6.31-11.92,14.46,5.91,42.46,4.44,55.43,.19-12.97,2.45-27.38,.25-39.73-1.87Z"/><path class="q" d="M407.17,134.95c-5.78,14.58-20.49,23.77-33.01,31.97-7.75,5.07-15.5,10.29-23.83,14.37-7.42,3.61-14.79,5.52-22.8,7.26-10.45,2.26-21.32,6.76-25.11,16.21,9.76-9.34,26.9-7.64,39.1-6.04,10.6,1.4,21.27,3.65,31.97,4.46-24.43-4.27-39.11-8.48-38.11-8.68,1.76-.34,54.32-22.07,71.85-49.05,10.85-16.72,5.71-29.12,.22-36.15,.3,.86,.59,1.72,.85,2.59,2.24,7.79,1.88,15.52-1.12,23.06Z"/><g><g><g><path class="u" d="M412.25,50.81l.62-.44,11.99-8.43s-5.84,47.89-25.47,67.06l-8.41-18.23,21.26-39.96Z"/><path class="p" d="M412.25,50.81l.62-.44,11.99-8.43s-5.84,47.89-25.47,67.06l-8.41-18.23,21.26-39.96Z"/><path class="r" d="M403.56,90.46c-.47-5.35,1.2-9.66,3.76-14.27,6.08-10.96,12.13-21.95,16.68-33.63l-11.12,7.82-.62,.44-21.26,39.96,8.41,18.23c2.46-2.42,4.71-5.28,6.76-8.45-1.19-3.31-2.3-6.65-2.6-10.09Z"/><path class="u" d="M360.62,52.45s26.16-16.57,65.88-14.01c0,0-17.75,38.79-35.51,52.33l-30.37-38.32Z"/><path class="n" d="M410.85,58.54c-4.56,4.27-13.17,9.49-20.09,7.51-3.88-1.12-14.8-10.8-17.43-14.43-1.27-1.75-1.5-3.35-1.09-4.8-7.48,3-11.62,5.62-11.62,5.62l30.37,38.32c17.76-13.55,35.51-52.33,35.51-52.33h-.06c-4.27,7.36-9.36,14.28-15.59,20.11Z"/><path class="j" d="M374.46,47.48s25.23-10.16,49.94-7.89c0,0-25.06,3.69-49.94,7.89Z"/></g><path class="u" d="M421.24,57.11s-4.9,22.6-13.31,36.63c0,0,8.59-25.76,13.31-36.63Z"/></g><path class="s" d="M358.51,46.37s-27.94,3.03-40.92,33.9c0,0,5.81-2.46,13.65-3.59,0,0-10.51,6.5-12.53,26.63,0,0,5.37-6.48,11.63-9.17,0,0-7.38,29.98,4.25,62.87,0,0,1.35-12.75,13.87-16.78,12.52-4.03,53.02-9.84,51.9-38.48,0,0-8.08-41.95-41.85-55.38Z"/><path class="o" d="M360.66,47.3c-.31,1.63-1.26,3.13-3.13,4.38-4.49,3-10.5,4.68-11.21,10.6,5.58-2.78,12.25-7.52,17.95-2.86,.5,.41,.07,1.2-.5,1.2-14.25,.02-15.16,18.3-12.97,28.28,1.71,7.76,13.81,28.5,12.49,31.89-.58,1.49-2.99,3.45-3.84,4.78,1.29-1.08,4.23-2.68,5.53-3.64,3.67-2.7,7.69-5.49,12.08-6.87,2.58-.82,5.88-1.31,7.37,1.5,1.79,3.38-1.53,6.54-4.17,8.15-9.64,5.9-21.29,6.69-31.58,10.91-5.69,2.34-11.9,6.43-13.29,12.89-.17,.78-.8,4.25-1.09,7.6,.1,.3,.2,.59,.3,.9,0,0,1.35-12.75,13.87-16.78,12.52-4.03,53.02-9.84,51.9-38.48,0,0-7.75-40.14-39.71-54.45Z"/><path class="v" d="M379.78,111.33s3.74-17.3-7.95-35.99c-11.68-18.69-21.26-8.88-19.63,9.58,1.63,18.46,13.09,33.87,13.09,33.87l14.49-7.46Z"/><path class="d" d="M379.94,110.71s3.45-16.01-7.36-33.32c-10.81-17.3-19.68-8.21-18.17,8.87,1.51,17.1,12.11,31.36,12.11,31.36l13.42-6.91Z"/><path class="f" d="M358.74,126.29s8.42-15.43,30.38-16.83c0,0-15.42,2.8-30.38,16.83Z"/><path class="t" d="M350.26,53.09c-8.61,7.24-3.23,19.96-2.6,21.98,3.14-24.27,15.39-15.96,15.39-15.96,0,0-7.57-10.41-12.79-6.02Z"/><g><path class="g" d="M376.11,85.48c2.6,9.1,1.28,17.47-2.95,18.67-4.24,1.22-9.78-5.18-12.39-14.27-2.6-9.11-1.28-17.47,2.95-18.69,4.24-1.21,9.78,5.19,12.39,14.29Z"/><path class="t" d="M374.34,82.93c1.63,5.68,.25,11.05-3.08,12.01-3.34,.95-7.35-2.88-8.98-8.56-1.62-5.68-.24-11.06,3.09-12.01,3.34-.95,7.35,2.88,8.98,8.56Z"/><path class="d" d="M367.53,81.9c.74,2.59,.36,4.98-.84,5.32-1.2,.34-2.79-1.48-3.53-4.07-.74-2.59-.36-4.97,.84-5.33,1.21-.34,2.79,1.49,3.53,4.07Z"/></g></g><path class="k" d="M294.5,21.84c.14-.73-5.61,8.64-23.37,23.13-17.76,14.48-40.18,39.95-46.26,62.38,0,0-6.08,16.12,2.56,39.72,0,0-5-32.9,12.38-57.95,19.63-28.26,51.87-52.57,54.68-67.28Z"/><path class="k" d="M184.69,220.78s-24.54,30.49-15.41,105.84c0,0-2.46-62.39,15.41-105.84Z"/><path class="k" d="M128.18,138.05c-11.13-3.63-23.28-8.09-36.01-13.99C49.76,104.42,7.71,70.08,7.71,70.08c11.18,19,57.17,46.02,89.95,60.57,9.96,3.18,20.21,5.6,30.52,7.39Z"/><path class="k" d="M461.49,215.81s34.34,4.44,65.89,5.61c31.54,1.17,73.36-4.43,73.36-4.43,0,0-73.83,18.69-139.25-1.17Z"/><path class="k" d="M137.26,388.88s-48.37,34.57-59.12,61.21c0,0,34.58-40.65,59.12-61.21Z"/><path class="k" d="M137.73,415.98s-48.37,36.92-59.11,63.55c0,0,34.58-42.99,59.11-63.55Z"/><path class="k" d="M144.95,435.55s-42.78,43.27-49.72,71.13c0,0,28.28-47.37,49.72-71.13Z"/><path class="k" d="M170.32,439.07s-35.99,49.05-38.78,77.65c0,0,21.04-51,38.78-77.65Z"/><path class="k" d="M207.39,453.83c-5.68,18.46-11.39,42.29-9.03,57.78,0,0,2.08-14.47,5.54-32.63,1.26-8.37,2.68-16.74,3.49-25.15Z"/><path class="k" d="M181.51,461.93c-8.08,17.55-16.9,40.4-16.6,56.07,0,0,3.97-14.07,9.81-31.61,2.36-8.14,4.87-16.23,6.79-24.46Z"/></g></g></g></g></svg>