<svg width="512" height="512" viewBox="0 0 512 512" fill="none" xmlns="http://www.w3.org/2000/svg">
<g clip-path="url(#clip0_601_11)">
<path d="M264.535 307.167C264.535 299.264 259.064 292.624 251.733 290.712C253.107 290.354 254.515 290.098 256 290.098C246.612 290.098 238.93 297.779 238.93 307.168C238.93 316.556 246.611 324.237 256 324.237C254.515 324.237 253.107 323.99 251.733 323.623C259.055 321.71 264.535 315.07 264.535 307.167Z" fill="white"/>
<path d="M255.999 290.098C254.514 290.098 253.106 290.345 251.732 290.712C259.063 292.624 264.534 299.264 264.534 307.167C264.534 315.07 259.063 321.71 251.732 323.622C253.106 323.98 254.514 324.236 255.999 324.236C265.387 324.236 273.068 316.555 273.068 307.167C273.069 297.78 265.387 290.098 255.999 290.098Z" fill="#F4F4F4"/>
<path d="M264.535 221.816C264.535 213.913 259.064 207.273 251.733 205.361C253.107 205.003 254.515 204.746 256 204.746C246.612 204.746 238.93 212.427 238.93 221.816C238.93 231.204 246.611 238.886 256 238.886C254.515 238.886 253.107 238.639 251.733 238.271C259.055 236.36 264.535 229.719 264.535 221.816Z" fill="white"/>
<path d="M255.999 204.75C254.514 204.75 253.106 204.997 251.732 205.365C259.063 207.277 264.534 213.917 264.534 221.82C264.534 229.723 259.063 236.363 251.732 238.275C253.106 238.633 254.514 238.89 255.999 238.89C265.387 238.89 273.068 231.209 273.068 221.82C273.069 212.431 265.387 204.75 255.999 204.75Z" fill="#F4F4F4"/>
<path d="M264.535 136.472C264.535 128.569 259.064 121.929 251.733 120.017C253.107 119.659 254.515 119.402 256 119.402C246.612 119.402 238.93 127.083 238.93 136.472C238.93 145.861 246.611 153.542 256 153.542C254.515 153.542 253.107 153.294 251.733 152.927C259.055 151.015 264.535 144.375 264.535 136.472Z" fill="white"/>
<path d="M255.999 119.402C254.514 119.402 253.106 119.65 251.732 120.016C259.063 121.928 264.534 128.568 264.534 136.471C264.534 144.374 259.063 151.014 251.732 152.926C253.106 153.284 254.514 153.541 255.999 153.541C265.387 153.541 273.068 145.86 273.068 136.471C273.069 127.084 265.387 119.402 255.999 119.402Z" fill="#F4F4F4"/>
<path d="M228.859 452.512C229.371 452.512 229.798 452.512 230.225 452.597C239.955 453.024 248.575 458.657 256 469.325C262.999 459.339 270.936 453.706 279.983 452.768C280.58 452.683 281.178 452.597 281.775 452.597C288.005 452.341 293.468 454.133 298.588 456.95H298.631L291.59 418.117H220.41L209.998 475.641L213.412 457.035C218.106 454.304 223.312 452.512 228.859 452.512Z" fill="#FFC107"/>
<path d="M298.674 456.949H298.631L302.002 475.555L298.674 456.949Z" fill="#F9A825"/>
<path d="M298.63 456.95H298.587C293.466 454.134 288.004 452.341 281.774 452.597C281.177 452.597 280.579 452.682 279.982 452.768C270.935 453.707 262.998 459.34 255.999 469.325C248.574 458.657 239.954 453.024 230.224 452.597C229.797 452.512 229.371 452.512 228.858 452.512C223.31 452.512 218.104 454.304 213.41 457.035L209.996 475.641C215.544 471.8 221.945 469.069 228.858 469.069C229.37 469.069 229.797 469.069 230.224 469.154C239.954 469.581 248.574 475.214 255.999 485.882C263.424 475.214 272.044 469.581 281.774 469.154C289.37 468.813 296.112 471.544 302.001 475.555L298.63 456.95Z" fill="#F9A825"/>
<path d="M256 102.332C237.138 102.332 221.861 117.609 221.861 136.471C221.861 155.333 237.138 170.61 256 170.61C274.862 170.61 290.139 155.333 290.139 136.471C290.139 117.609 274.862 102.332 256 102.332ZM256 153.54C255.232 153.54 254.549 153.455 253.866 153.369C253.098 153.284 252.415 153.198 251.732 152.942C244.392 151.064 238.93 144.407 238.93 136.47C238.93 128.533 244.392 121.876 251.732 119.998C252.415 119.742 253.098 119.657 253.866 119.571C254.549 119.486 255.232 119.4 256 119.4C265.388 119.4 273.069 127.081 273.069 136.47C273.07 145.859 265.388 153.54 256 153.54Z" fill="black"/>
<path d="M256 187.68C237.138 187.68 221.861 202.957 221.861 221.819C221.861 240.681 237.138 255.958 256 255.958C274.862 255.958 290.139 240.681 290.139 221.819C290.139 202.957 274.862 187.68 256 187.68ZM256 238.889C255.232 238.889 254.549 238.804 253.866 238.718C253.098 238.633 252.415 238.547 251.732 238.291C244.392 236.413 238.93 229.756 238.93 221.819C238.93 213.882 244.392 207.225 251.732 205.347C252.415 205.091 253.098 205.006 253.866 204.92C254.549 204.835 255.232 204.749 256 204.749C265.388 204.749 273.069 212.43 273.069 221.819C273.07 231.208 265.388 238.889 256 238.889Z" fill="black"/>
<path d="M256 273.027C237.138 273.027 221.861 288.304 221.861 307.166C221.861 326.028 237.138 341.305 256 341.305C274.862 341.305 290.139 326.028 290.139 307.166C290.139 288.304 274.862 273.027 256 273.027ZM256 324.235C255.232 324.235 254.549 324.15 253.866 324.064C253.098 323.979 252.415 323.893 251.732 323.637C244.392 321.759 238.93 315.102 238.93 307.165C238.93 299.228 244.392 292.571 251.732 290.693C252.415 290.437 253.098 290.352 253.866 290.266C254.549 290.181 255.232 290.095 256 290.095C265.388 290.095 273.069 297.776 273.069 307.165C273.07 316.554 265.388 324.235 256 324.235Z" fill="black"/>
<path d="M336.483 308.02C335.8 307.679 335.117 307.422 334.435 307.336C355.003 125.034 293.382 35.3345 262.145 2.5605C258.987 -0.8535 253.013 -0.8535 249.855 2.5605C218.618 35.3335 156.997 125.034 177.566 307.336C176.883 307.421 176.2 307.678 175.518 308.02C108.691 339.854 127.723 405.657 146.073 469.241C148.719 478.544 151.45 487.847 153.84 497.064C154.779 500.563 157.681 503.038 161.265 503.38C164.85 503.807 168.178 501.929 169.714 498.771L199.159 440.052L187.893 501.929C187.125 506.026 189.429 510.037 193.355 511.488C194.294 511.829 195.233 512 196.257 512C199.244 512 202.061 510.464 203.682 507.733C207.864 500.478 219.727 485.8 229.372 486.141C235.602 486.482 242.345 493.907 248.234 506.965C249.6 510.038 252.672 512 256.001 512C259.33 512 262.402 510.037 263.768 506.965C269.657 493.907 276.314 486.483 282.63 486.141C292.872 485.629 304.991 502.015 308.405 507.733C310.453 511.318 314.806 512.854 318.732 511.488C322.573 510.037 324.877 506.026 324.109 501.929L312.843 440.052L342.288 498.771C343.824 501.929 347.238 503.807 350.737 503.38C354.322 503.039 357.223 500.564 358.162 497.064C360.552 487.846 363.283 478.544 365.929 469.241C384.277 405.657 403.31 339.854 336.483 308.02ZM164.422 471.289C163.739 468.985 163.142 466.766 162.459 464.547C144.963 403.78 129.771 351.12 179.785 324.918C183.37 350.949 188.576 378.858 195.745 408.559L164.422 471.289ZM281.775 469.156C272.045 469.583 263.425 475.216 256 485.884C248.575 475.216 239.955 469.583 230.225 469.156C229.798 469.071 229.372 469.072 228.859 469.072C221.946 469.072 215.545 471.802 209.997 475.643L213.411 457.037L220.41 418.119H291.59L298.589 456.952L302.003 475.559C296.113 471.546 289.371 468.814 281.775 469.156ZM300.466 401.048H211.534C160.667 186.655 213.241 76.2155 249.599 29.0185C250.111 28.4215 250.538 27.8235 250.965 27.3115C252.672 25.0925 254.379 23.0445 256.001 21.1665C292.102 63.3285 354.406 173.853 300.466 401.048ZM349.541 464.547C348.858 466.766 348.261 468.985 347.578 471.289L316.255 408.559C323.424 378.858 328.63 350.949 332.215 324.918C382.229 351.12 367.037 403.779 349.541 464.547Z" fill="black"/>
<path d="M349.54 464.547C348.857 466.766 348.26 468.985 347.577 471.289L316.254 408.559C323.423 378.858 328.629 350.949 332.214 324.918C382.228 351.12 367.036 403.779 349.54 464.547Z" fill="#0091EA"/>
<path d="M195.744 408.559L164.421 471.289C163.738 468.985 163.141 466.766 162.458 464.547C144.962 403.78 129.77 351.12 179.784 324.918C183.368 350.949 188.574 378.858 195.744 408.559Z" fill="#0091EA"/>
<path d="M256 21.1641C254.378 23.0421 252.671 25.0901 250.964 27.3091C250.537 27.8211 250.111 28.4191 249.598 29.0161C213.24 76.2131 160.666 186.653 211.533 401.046H300.465C354.406 173.851 292.102 63.3261 256 21.1641ZM256 341.303C237.138 341.303 221.861 326.026 221.861 307.164C221.861 288.302 237.138 273.025 256 273.025C274.862 273.025 290.139 288.302 290.139 307.164C290.139 326.026 274.862 341.303 256 341.303ZM256 255.955C237.138 255.955 221.861 240.678 221.861 221.816C221.861 202.954 237.138 187.677 256 187.677C274.862 187.677 290.139 202.954 290.139 221.816C290.139 240.678 274.862 255.955 256 255.955ZM256 170.608C237.138 170.608 221.861 155.331 221.861 136.469C221.861 117.607 237.138 102.33 256 102.33C274.862 102.33 290.139 117.607 290.139 136.469C290.139 155.331 274.862 170.608 256 170.608Z" fill="#D50000"/>
<path d="M256 21.1641C254.66 22.7261 253.277 24.4071 251.869 26.1741C251.818 26.2421 251.767 26.3111 251.715 26.3701C250.324 28.1201 248.907 29.9631 247.465 31.8921C283.755 80.6431 333.282 190.92 283.396 401.037H300.466C354.406 173.851 292.102 63.3261 256 21.1641Z" fill="#B71C1C"/>
<path d="M332.216 324.918C331.858 327.513 331.414 330.201 331.021 332.83C363.974 359.194 353.793 403.54 339.241 454.587L347.578 471.29C348.261 468.986 348.859 466.767 349.542 464.548C367.039 403.779 382.23 351.12 332.216 324.918Z" fill="#2979FF"/>
<path d="M179.786 324.918C176.85 326.454 174.179 328.101 171.669 329.826C169.211 331.541 166.958 333.334 164.875 335.203C168.357 358.085 173 382.272 179.179 407.876L158.252 449.799V449.808C159.618 454.664 161.017 459.572 162.451 464.548C163.134 466.767 163.731 468.986 164.414 471.29L195.737 408.56C188.576 378.858 183.37 350.949 179.786 324.918Z" fill="#2979FF"/>
</g>
<defs>
<clipPath id="clip0_601_11">
<rect width="512" height="512" fill="white"/>
</clipPath>
</defs>
</svg>
