<svg width="640" height="562" viewBox="0 0 640 562" fill="none" xmlns="http://www.w3.org/2000/svg">
<path d="M130.854 0.304688L111.679 25.6547C64.3564 88.2096 82.8589 166.317 92.8726 196.72C87.2776 206.112 80.0301 220.536 75.4276 238.277C66.6676 272.052 70.8651 304.354 87.4801 333.028C88.7226 332.568 89.9626 332.101 91.1901 331.627C156.168 304.448 248.259 230.636 285.282 199.777L130.854 0.304688Z" fill="#2979FF"/>
<path d="M436.992 344.635C503.985 339.785 557.021 283.766 557.021 215.556C557.021 198.028 553.503 181.31 547.163 166.05L592.814 146.254L538.438 124.771L537.352 66.3164L498.076 107.074C477.772 93.8289 453.557 86.0976 427.56 86.0976C356.178 86.0976 298.101 144.173 298.101 215.556C298.101 227.013 299.614 238.119 302.421 248.706C257.535 285.294 173.136 350.266 109.341 376.766C58.8775 396.392 0 404.801 0 404.801L93.9225 438.445L39.25 530.967C39.25 530.967 135.447 483.465 248.044 475.906C255.489 496.114 268.185 514.506 285.384 529.46C309.945 550.817 338.085 561.699 368.109 561.696C379.185 561.696 390.524 560.214 402.029 557.23C419.769 552.63 434.194 545.38 443.586 539.785C473.989 549.801 552.096 568.3 614.651 520.979L640 501.805L436.992 344.635ZM455.658 179.148C469.092 179.148 479.981 190.038 479.981 203.471C479.981 216.904 469.092 227.795 455.658 227.795C442.225 227.795 431.334 216.905 431.334 203.471C431.335 190.038 442.225 179.148 455.658 179.148Z" fill="#2979FF"/>
</svg>
